<?xml version="1.0" standalone="no"?>
<svg xmlns:xlink="http://www.w3.org/1999/xlink" id="wave" style="transform:rotate(180deg); transition: 0.3s" viewBox="0 0 1440 220" version="1.1" xmlns="http://www.w3.org/2000/svg"><defs><linearGradient id="sw-gradient-0" x1="0" x2="0" y1="1" y2="0"><stop stop-color="rgba(36, 7, 71, 1)" offset="0%"/><stop stop-color="rgba(36, 7, 71, 1)" offset="100%"/></linearGradient></defs><path style="transform:translate(0, 0px); opacity:1" fill="url(#sw-gradient-0)" d="M0,44L40,69.7C80,95,160,147,240,146.7C320,147,400,95,480,80.7C560,66,640,88,720,88C800,88,880,66,960,77C1040,88,1120,132,1200,124.7C1280,117,1360,59,1440,51.3C1520,44,1600,88,1680,106.3C1760,125,1840,117,1920,117.3C2000,117,2080,125,2160,106.3C2240,88,2320,44,2400,36.7C2480,29,2560,59,2640,73.3C2720,88,2800,88,2880,73.3C2960,59,3040,29,3120,36.7C3200,44,3280,88,3360,121C3440,154,3520,176,3600,154C3680,132,3760,66,3840,40.3C3920,15,4000,29,4080,36.7C4160,44,4240,44,4320,62.3C4400,81,4480,117,4560,110C4640,103,4720,51,4800,51.3C4880,51,4960,103,5040,132C5120,161,5200,169,5280,143C5360,117,5440,59,5520,44C5600,29,5680,59,5720,73.3L5760,88L5760,220L5720,220C5680,220,5600,220,5520,220C5440,220,5360,220,5280,220C5200,220,5120,220,5040,220C4960,220,4880,220,4800,220C4720,220,4640,220,4560,220C4480,220,4400,220,4320,220C4240,220,4160,220,4080,220C4000,220,3920,220,3840,220C3760,220,3680,220,3600,220C3520,220,3440,220,3360,220C3280,220,3200,220,3120,220C3040,220,2960,220,2880,220C2800,220,2720,220,2640,220C2560,220,2480,220,2400,220C2320,220,2240,220,2160,220C2080,220,2000,220,1920,220C1840,220,1760,220,1680,220C1600,220,1520,220,1440,220C1360,220,1280,220,1200,220C1120,220,1040,220,960,220C880,220,800,220,720,220C640,220,560,220,480,220C400,220,320,220,240,220C160,220,80,220,40,220L0,220Z"/><defs><linearGradient id="sw-gradient-1" x1="0" x2="0" y1="1" y2="0"><stop stop-color="rgba(235, 38, 50, 1)" offset="0%"/><stop stop-color="rgba(246, 228, 173, 1)" offset="100%"/></linearGradient></defs><path style="transform:translate(0, 50px); opacity:0.9" fill="url(#sw-gradient-1)" d="M0,110L40,106.3C80,103,160,95,240,99C320,103,400,117,480,110C560,103,640,73,720,84.3C800,95,880,147,960,157.7C1040,169,1120,139,1200,113.7C1280,88,1360,66,1440,77C1520,88,1600,132,1680,157.7C1760,183,1840,191,1920,183.3C2000,176,2080,154,2160,146.7C2240,139,2320,147,2400,135.7C2480,125,2560,95,2640,84.3C2720,73,2800,81,2880,95.3C2960,110,3040,132,3120,150.3C3200,169,3280,183,3360,157.7C3440,132,3520,66,3600,55C3680,44,3760,88,3840,117.3C3920,147,4000,161,4080,143C4160,125,4240,73,4320,58.7C4400,44,4480,66,4560,77C4640,88,4720,88,4800,80.7C4880,73,4960,59,5040,62.3C5120,66,5200,88,5280,99C5360,110,5440,110,5520,95.3C5600,81,5680,51,5720,36.7L5760,22L5760,220L5720,220C5680,220,5600,220,5520,220C5440,220,5360,220,5280,220C5200,220,5120,220,5040,220C4960,220,4880,220,4800,220C4720,220,4640,220,4560,220C4480,220,4400,220,4320,220C4240,220,4160,220,4080,220C4000,220,3920,220,3840,220C3760,220,3680,220,3600,220C3520,220,3440,220,3360,220C3280,220,3200,220,3120,220C3040,220,2960,220,2880,220C2800,220,2720,220,2640,220C2560,220,2480,220,2400,220C2320,220,2240,220,2160,220C2080,220,2000,220,1920,220C1840,220,1760,220,1680,220C1600,220,1520,220,1440,220C1360,220,1280,220,1200,220C1120,220,1040,220,960,220C880,220,800,220,720,220C640,220,560,220,480,220C400,220,320,220,240,220C160,220,80,220,40,220L0,220Z"/></svg>