<?xml version="1.0" standalone="no"?>
<svg xmlns:xlink="http://www.w3.org/1999/xlink" id="wave" style="transform:rotate(0deg); transition: 0.3s" viewBox="0 0 1440 370" version="1.1" xmlns="http://www.w3.org/2000/svg"><defs><linearGradient id="sw-gradient-0" x1="0" x2="0" y1="1" y2="0"><stop stop-color="rgba(36, 7, 71, 1)" offset="0%"/><stop stop-color="rgba(36, 7, 71, 1)" offset="100%"/></linearGradient></defs><path style="transform:translate(0, 0px); opacity:1" fill="url(#sw-gradient-0)" d="M0,74L26.7,74C53.3,74,107,74,160,61.7C213.3,49,267,25,320,12.3C373.3,0,427,0,480,12.3C533.3,25,587,49,640,67.8C693.3,86,747,99,800,92.5C853.3,86,907,62,960,55.5C1013.3,49,1067,62,1120,86.3C1173.3,111,1227,148,1280,154.2C1333.3,160,1387,136,1440,104.8C1493.3,74,1547,37,1600,49.3C1653.3,62,1707,123,1760,148C1813.3,173,1867,160,1920,129.5C1973.3,99,2027,49,2080,67.8C2133.3,86,2187,173,2240,185C2293.3,197,2347,136,2400,111C2453.3,86,2507,99,2560,123.3C2613.3,148,2667,185,2720,185C2773.3,185,2827,148,2880,129.5C2933.3,111,2987,111,3040,117.2C3093.3,123,3147,136,3200,123.3C3253.3,111,3307,74,3360,74C3413.3,74,3467,111,3520,160.3C3573.3,210,3627,271,3680,271.3C3733.3,271,3787,210,3813,178.8L3840,148L3840,370L3813.3,370C3786.7,370,3733,370,3680,370C3626.7,370,3573,370,3520,370C3466.7,370,3413,370,3360,370C3306.7,370,3253,370,3200,370C3146.7,370,3093,370,3040,370C2986.7,370,2933,370,2880,370C2826.7,370,2773,370,2720,370C2666.7,370,2613,370,2560,370C2506.7,370,2453,370,2400,370C2346.7,370,2293,370,2240,370C2186.7,370,2133,370,2080,370C2026.7,370,1973,370,1920,370C1866.7,370,1813,370,1760,370C1706.7,370,1653,370,1600,370C1546.7,370,1493,370,1440,370C1386.7,370,1333,370,1280,370C1226.7,370,1173,370,1120,370C1066.7,370,1013,370,960,370C906.7,370,853,370,800,370C746.7,370,693,370,640,370C586.7,370,533,370,480,370C426.7,370,373,370,320,370C266.7,370,213,370,160,370C106.7,370,53,370,27,370L0,370Z"/><defs><linearGradient id="sw-gradient-1" x1="0" x2="0" y1="1" y2="0"><stop stop-color="rgba(235, 38, 50, 1)" offset="0%"/><stop stop-color="rgba(246, 228, 173, 1)" offset="100%"/></linearGradient></defs><path style="transform:translate(0, 50px); opacity:0.9" fill="url(#sw-gradient-1)" d="M0,333L26.7,296C53.3,259,107,185,160,135.7C213.3,86,267,62,320,55.5C373.3,49,427,62,480,74C533.3,86,587,99,640,117.2C693.3,136,747,160,800,141.8C853.3,123,907,62,960,80.2C1013.3,99,1067,197,1120,234.3C1173.3,271,1227,247,1280,246.7C1333.3,247,1387,271,1440,259C1493.3,247,1547,197,1600,203.5C1653.3,210,1707,271,1760,289.8C1813.3,308,1867,284,1920,246.7C1973.3,210,2027,160,2080,166.5C2133.3,173,2187,234,2240,265.2C2293.3,296,2347,296,2400,259C2453.3,222,2507,148,2560,111C2613.3,74,2667,74,2720,86.3C2773.3,99,2827,123,2880,129.5C2933.3,136,2987,123,3040,111C3093.3,99,3147,86,3200,98.7C3253.3,111,3307,148,3360,185C3413.3,222,3467,259,3520,271.3C3573.3,284,3627,271,3680,271.3C3733.3,271,3787,284,3813,289.8L3840,296L3840,370L3813.3,370C3786.7,370,3733,370,3680,370C3626.7,370,3573,370,3520,370C3466.7,370,3413,370,3360,370C3306.7,370,3253,370,3200,370C3146.7,370,3093,370,3040,370C2986.7,370,2933,370,2880,370C2826.7,370,2773,370,2720,370C2666.7,370,2613,370,2560,370C2506.7,370,2453,370,2400,370C2346.7,370,2293,370,2240,370C2186.7,370,2133,370,2080,370C2026.7,370,1973,370,1920,370C1866.7,370,1813,370,1760,370C1706.7,370,1653,370,1600,370C1546.7,370,1493,370,1440,370C1386.7,370,1333,370,1280,370C1226.7,370,1173,370,1120,370C1066.7,370,1013,370,960,370C906.7,370,853,370,800,370C746.7,370,693,370,640,370C586.7,370,533,370,480,370C426.7,370,373,370,320,370C266.7,370,213,370,160,370C106.7,370,53,370,27,370L0,370Z"/></svg>